<svg xmlns="http://www.w3.org/2000/svg" viewBox="0 0 1024 1024">
  <defs>
    <linearGradient id="tile" x1="166" y1="146" x2="872" y2="900" gradientUnits="userSpaceOnUse">
      <stop offset="0" stop-color="#ffffff"/>
      <stop offset=".38" stop-color="#eef8ff"/>
      <stop offset=".72" stop-color="#d7ecff"/>
      <stop offset="1" stop-color="#f5f1ff"/>
    </linearGradient>
    <linearGradient id="rim" x1="210" y1="146" x2="822" y2="878" gradientUnits="userSpaceOnUse">
      <stop offset="0" stop-color="#ffffff" stop-opacity=".9"/>
      <stop offset=".48" stop-color="#8fcfff" stop-opacity=".32"/>
      <stop offset="1" stop-color="#ffffff" stop-opacity=".58"/>
    </linearGradient>
    <linearGradient id="mark" x1="292" y1="760" x2="730" y2="294" gradientUnits="userSpaceOnUse">
      <stop offset="0" stop-color="#ffffff"/>
      <stop offset=".46" stop-color="#5ac8fa"/>
      <stop offset="1" stop-color="#0a84ff"/>
    </linearGradient>
    <filter id="softShadow" x="-20%" y="-20%" width="140%" height="140%">
      <feDropShadow dx="0" dy="28" stdDeviation="36" flood-color="#0a3a76" flood-opacity=".2"/>
    </filter>
    <filter id="glassBlur" x="-10%" y="-10%" width="120%" height="120%">
      <feGaussianBlur stdDeviation="18"/>
    </filter>
  </defs>

  <rect width="1024" height="1024" fill="none"/>
  <g filter="url(#softShadow)">
    <rect x="72" y="72" width="880" height="880" rx="218" fill="url(#tile)"/>
    <rect x="72" y="72" width="880" height="880" rx="218" fill="#ffffff" opacity=".18"/>
    <circle cx="304" cy="226" r="242" fill="#ffffff" opacity=".56" filter="url(#glassBlur)"/>
    <circle cx="768" cy="274" r="226" fill="#00c7be" opacity=".16" filter="url(#glassBlur)"/>
    <circle cx="700" cy="764" r="288" fill="#5856d6" opacity=".13" filter="url(#glassBlur)"/>
    <rect x="92" y="92" width="840" height="840" rx="202" fill="none" stroke="url(#rim)" stroke-width="28"/>
    <rect x="126" y="126" width="772" height="772" rx="184" fill="none" stroke="#ffffff" stroke-opacity=".46" stroke-width="4"/>
  </g>

  <g fill="none" stroke-linecap="round" stroke-linejoin="round">
    <ellipse cx="512" cy="512" rx="246" ry="94" transform="rotate(-14 512 512)" stroke="#ffffff" stroke-opacity=".48" stroke-width="24"/>
    <path d="M338 742 512 270 686 742" stroke="#0b2d57" stroke-opacity=".12" stroke-width="92"/>
    <path d="M338 742 512 270 686 742" stroke="url(#mark)" stroke-width="68"/>
    <path d="M426 576H598" stroke="#0b2d57" stroke-opacity=".14" stroke-width="78"/>
    <path d="M426 576H598" stroke="url(#mark)" stroke-width="54"/>
    <path d="M512 270 365 670" stroke="#ffffff" stroke-opacity=".46" stroke-width="16"/>
    <path d="M512 270 658 670" stroke="#ffffff" stroke-opacity=".32" stroke-width="14"/>
  </g>

  <circle cx="512" cy="576" r="52" fill="#0a84ff" opacity=".16"/>
  <circle cx="512" cy="576" r="36" fill="#f7fbff" opacity=".86"/>
  <circle cx="512" cy="576" r="23" fill="#0a84ff"/>
  <circle cx="512" cy="576" r="34" fill="none" stroke="#ffffff" stroke-opacity=".72" stroke-width="5"/>
</svg>
